<?xml version="1.0" encoding="UTF-8"?>
<svg width="95px" height="96px" viewBox="0 0 95 96" version="1.1" xmlns="http://www.w3.org/2000/svg" xmlns:xlink="http://www.w3.org/1999/xlink">
    <!-- Generator: Sketch 46.2 (44496) - http://www.bohemiancoding.com/sketch -->
    <title>Page 1</title>
    <desc>Created with Sketch.</desc>
    <defs>
        <polygon id="path-1" points="37.9572479 0.865492611 0.226383551 0.865492611 0.226383551 50.1306384 37.9572479 50.1306384 37.9572479 0.865492611"></polygon>
        <polygon id="path-3" points="49.7596753 52.2674282 49.7596753 0.142970994 0.318671855 0.142970994 0.318671855 52.2674282 49.7596753 52.2674282"></polygon>
    </defs>
    <g id="Page-1" stroke="none" stroke-width="1" fill="none" fill-rule="evenodd">
        <g id="iPhone-7" transform="translate(-3.000000, -2.000000)">
            <g id="Page-1" transform="translate(3.000000, 2.000000)">
                <g id="Group-3" transform="translate(29.000000, 0.000000)">
                    <mask id="mask-2" fill="white">
                        <use xlink:href="#path-1"></use>
                    </mask>
                    <g id="Clip-2"></g>
                    <path d="M37.9572479,49.1508355 C30.3527205,11.2716532 2.77248747,1.27113103 1.6023239,0.862879803 L0.226383551,5.32751527 C0.370734436,5.37650542 8.50659604,8.36490443 16.9096603,17.0426926 C13.859864,35.1657813 2.94448001,44.026466 2.82469949,44.1244463 L5.43530061,47.9064857 C5.96663472,47.4917025 16.6056021,38.9510867 20.6136426,21.2591113 C26.0314078,28.0426138 31.0867601,37.402998 33.6420779,50.1306384 L37.9572479,49.1508355 Z" id="Fill-1" fill="#9B9B9B" mask="url(#mask-2)"></path>
                </g>
                <g id="Group-6" transform="translate(45.000000, 43.000000)">
                    <mask id="mask-4" fill="white">
                        <use xlink:href="#path-3"></use>
                    </mask>
                    <g id="Clip-5"></g>
                    <path d="M42.4886945,36.9403227 L40.9182387,38.2593454 C36.9871813,41.5707381 32.8331782,43.1880014 28.213612,43.2125986 L28.0923033,43.2125986 C23.108811,43.2125986 18.9515293,41.6045592 15.3909552,38.3023905 C11.8008735,34.9725499 10.0435368,31.0493028 10.0140293,26.3051256 C9.98452174,21.5763215 11.6959579,17.6499998 15.2499748,14.2955621 C18.7974344,10.9380497 22.9711092,9.2931146 28.0103379,9.26851744 L28.111975,9.26851744 C32.698755,9.26851744 36.8429223,10.8365864 40.7838156,14.0588144 L42.3608286,15.3470907 L49.5606635,9.2931146 L47.6131672,7.64203022 C41.7444493,2.66417992 35.183944,0.142970994 28.111975,0.142970994 L27.9578801,0.142970994 C20.2957607,0.179866734 13.6926334,2.79331501 8.33210061,7.90030041 C2.97156777,13.0042112 0.276547597,19.2119195 0.319169571,26.3512452 C0.361791544,33.533616 3.13221983,39.7228765 8.55504631,44.7529957 C13.9286936,49.74007 20.4990348,52.2674282 28.0857461,52.2674282 L28.2627912,52.2674282 C35.3904966,52.2305325 41.9706736,49.6662785 47.8197198,44.6392339 L49.7606589,42.9758509 L42.4886945,36.9403227 Z" id="Fill-4" fill="#9B9B9B" mask="url(#mask-4)"></path>
                </g>
                <g id="Group-9" transform="translate(0.000000, 43.000000)" fill="#9B9B9B">
                    <path d="M42.8105244,37.6078647 L41.39008,38.7925706 C37.3827556,42.1533941 33.1448178,43.7901588 28.4356267,43.8182176 L28.3153067,43.8182176 C23.2351289,43.8182176 18.9971911,42.1845706 15.3675378,38.8393353 C11.7078044,35.4629235 9.91303111,31.4848059 9.88629333,26.6711588 C9.85621333,21.8793353 11.6008533,17.8949824 15.22048,14.4967471 C18.8367644,11.0922765 23.0947556,9.42121765 28.2317511,9.39627647 L28.3320178,9.39627647 C33.0077867,9.39627647 37.2323556,10.9862765 41.2497067,14.2535706 L42.8305778,15.5380412 C43.9368533,12.5108059 45.48096,9.67062941 47.3960533,7.0861 C41.6240356,2.48133529 35.2203378,0.1431 28.3320178,0.1431 L28.1816178,0.1431 C20.3675022,0.183629412 13.6362667,2.83051176 8.17173333,8.00892353 C2.7072,13.1873353 -0.0401066667,19.4818647 -5.42101086e-20,26.7179235 C0.0467911111,34.0007471 2.86762667,40.2796882 8.39232,45.3770412 C13.8769067,50.4338647 20.57472,52.9996882 28.3086222,52.9996882 L28.4891022,52.9996882 C35.3373156,52.9653941 41.69088,50.6489824 47.3960533,46.1128059 C45.4642489,43.5158059 43.9168,40.6569235 42.8105244,37.6078647" id="Fill-7"></path>
                </g>
            </g>
        </g>
    </g>
</svg>