<svg id="Layer_1" data-name="Layer 1" xmlns="http://www.w3.org/2000/svg" viewBox="0 0 100 100"><defs><style>.cls-1{fill:#fff;}.cls-2{fill:#4a4a4a;}</style></defs><title>cc_microsurvey_no</title><g id="Shape"><path class="cls-1" d="M34.21,15c15.09,0,33.65,5.38,33.65,9.76V51.81c0,3.38-9.88,9.91-15.19,13.43l-2.09,1.39c-5.07,3.42-9.38,9-12.52,13.1C36.15,82.22,34,85,33.18,85c0,0,0,0-.08-.06-6.19-7.67.62-17,3.9-21.43,1.49-2,2-2.71,1.73-3.31-.28-.76-1.54-1-5.13-1.55-4.51-.7-12.06-1.87-12.06-5,0-2.67,2-12.44,4.58-21.54C29.78,19.48,32.7,15,34.21,15Z"/><path class="cls-2" d="M33.35,84.33c-5.52-7.26.75-15.8,4.13-20.42C39.05,61.77,39.64,61,39.29,60c-.42-1.13-1.83-1.35-5.6-1.93-4-.63-11.55-1.79-11.55-4.38s2-12.47,4.56-21.37c4-13.78,6.76-16.79,7.51-16.79A84.37,84.37,0,0,1,56.54,18.8c7.37,2.16,10.72,4.58,10.72,5.92V51.81c0,3.06-10.46,10-14.92,12.93l-2.1,1.39c-5.15,3.47-9.49,9.12-12.66,13.24-1.51,2-3.35,4.37-4.23,5m-.17,1.31c2.51,0,8.92-12.57,17.73-18.51C56.18,63.57,68.46,56,68.46,51.81V24.72c0-5-19.46-10.36-34.25-10.36-5.42,0-13.27,34-13.27,39.36S37.64,59,38.17,60.44s-14,14.4-5.54,24.92a.7.7,0,0,0,.55.28Z"/></g><g id="Line"><path class="cls-2" d="M78.46,23.63a.6.6,0,0,1,.6.6v28a.6.6,0,0,1-1.2,0v-28A.6.6,0,0,1,78.46,23.63Z"/></g></svg>