<svg id="Layer_1" xmlns="http://www.w3.org/2000/svg" viewBox="-449 451 100 100"><style>.st0,.st1{fill:#ffd73f;stroke:#4a4a4a;stroke-width:1.2;stroke-linecap:round;stroke-linejoin:round}.st1{fill:none}.st2{fill:#404041}</style><title>smiley_Straightface_icon_Selected</title><g id="Page-1"><g id="smiley_Straightface_icon_Selected"><g id="Group-3" transform="translate(6 6)"><path id="Stroke-57" class="st0" d="M-357.1 495c0 5.9-1 11.5-2.9 16.7-6.7 18.5-24.3 31.6-45 31.6-26.5 0-47.9-21.6-47.9-48.3s21.4-48.3 47.9-48.3 47.9 21.6 47.9 48.3z"/><path id="Stroke-58" class="st1" d="M-418.7 514.4h27.4"/><path id="Path-Copy" class="st2" d="M-384.3 471.4c1.2 0 2.2 1 2.2 2.2V487c0 1.2-1 2.2-2.2 2.2s-2.2-1-2.2-2.2v-13.4c0-1.2 1-2.2 2.2-2.2z"/><path id="Path-Copy-2" class="st2" d="M-426 471.4c1.2 0 2.2 1 2.2 2.2V487c0 1.2-1 2.2-2.2 2.2-1.2 0-2.2-1-2.2-2.2v-13.4c-.1-1.2.9-2.2 2.2-2.2z"/></g></g></g></svg>