<svg id="Layer_1" xmlns="http://www.w3.org/2000/svg" viewBox="-449 451 100 100"><style>.st0,.st1{fill:#ffd73f;stroke:#4a4a4a;stroke-width:1.2;stroke-linecap:round;stroke-linejoin:round}.st1{fill:none}.st2{fill:#404041}</style><title>smiley_Sad_icon_Selected</title><g id="Page-1"><g id="Group-2" transform="translate(6 5)"><path id="Stroke-65" class="st0" d="M-358.6 495c0 26.1-21 47.3-46.9 47.3s-46.9-21.2-46.9-47.3c0-26.1 21-47.3 46.9-47.3s46.9 21.1 46.9 47.3z"/><g id="Group-6" transform="translate(30.555 55.253)"><path id="Stroke-66" class="st1" d="M-449.5 460s6.7-6.8 13.4-6.8 13.4 6.8 13.4 6.8"/></g><path id="Path" class="st2" d="M-386.8 471.9c1.2 0 2.2 1 2.2 2.2v13.2c0 1.2-1 2.2-2.2 2.2-1.2 0-2.2-1-2.2-2.2v-13.2c0-1.2 1-2.2 2.2-2.2z"/><path id="Path_1_" class="st2" d="M-425.9 471.9c1.2 0 2.2 1 2.2 2.2v13.2c0 1.2-1 2.2-2.2 2.2s-2.2-1-2.2-2.2v-13.2c0-1.2 1-2.2 2.2-2.2z"/></g></g></svg>