<svg id="Layer_1" xmlns="http://www.w3.org/2000/svg" viewBox="-449 451 100 100"><style>.st0,.st1{stroke:#4a4a4a;stroke-linecap:round;stroke-linejoin:round}.st0{stroke-width:1.2;fill:#ffd73f}.st1{fill:#fff}.st2{fill:#404041}</style><title>smiley_very_Happy_icon_Selected</title><g id="Page-1"><g id="smiley_very_Happy_icon_Selected"><g id="Group-8" transform="translate(7 7)"><path id="Stroke-53" class="st0" d="M-358.1 494c0 26.7-21.4 48.3-47.9 48.3s-47.9-21.6-47.9-48.3c0-26.7 21.4-48.3 47.9-48.3s47.9 21.6 47.9 48.3z"/><path id="Stroke-54" class="st1" d="M-385.5 507.8s-6.8 13.8-20.5 13.8-20.5-13.8-20.5-13.8h41z"/><path id="Path-Copy-7" class="st2" d="M-384.4 470.4c1.2 0 2.2 1 2.2 2.2V486c0 1.2-1 2.2-2.2 2.2s-2.2-1-2.2-2.2v-13.4c0-1.2 1-2.2 2.2-2.2z"/><path id="Path-Copy-8" class="st2" d="M-426.1 470.4c1.2 0 2.2 1 2.2 2.2V486c0 1.2-1 2.2-2.2 2.2s-2.2-1-2.2-2.2v-13.4c0-1.2 1-2.2 2.2-2.2z"/></g></g></g></svg>