<svg id="Layer_1" xmlns="http://www.w3.org/2000/svg" viewBox="-449 451 100 100"><style>.st0,.st1{fill:#ffd73f;stroke:#4a4a4a;stroke-width:1.2;stroke-linecap:round;stroke-linejoin:round}.st1{fill:none}.st2{fill:#404041}</style><title>smiley_meh_icon_Selected</title><g id="Page-1"><g id="smiley_meh_icon_Selected"><g id="Group" transform="translate(6 6)"><path id="Stroke-61" class="st0" d="M-356.7 495c0 26.7-21.6 48.3-48.3 48.3s-48.3-21.6-48.3-48.3 21.6-48.3 48.3-48.3 48.3 21.6 48.3 48.3z"/><g id="Group-4" transform="translate(43.82 55.582)"><path id="Stroke-62" class="st1" d="M-448.8 467c13.8 0 20.7-13.8 20.7-13.8"/></g><path id="Path-Copy-3" class="st2" d="M-382.5 471.4c1.3 0 2.3 1 2.3 2.2V487c0 1.2-1 2.2-2.3 2.2-1.3 0-2.3-1-2.3-2.2v-13.4c.1-1.2 1.1-2.2 2.3-2.2z"/><path id="Path-Copy-4" class="st2" d="M-424.6 471.4c1.3 0 2.3 1 2.3 2.2V487c0 1.2-1 2.2-2.3 2.2-1.3 0-2.3-1-2.3-2.2v-13.4c.1-1.2 1.1-2.2 2.3-2.2z"/></g></g></g></svg>