<svg id="Layer_1" xmlns="http://www.w3.org/2000/svg" viewBox="-449 451 100 100"><style>.st0,.st1{fill:#ffd73f;stroke:#404041;stroke-width:1.2;stroke-linecap:round;stroke-linejoin:round}.st1{fill:none;stroke:#4a4a4a}.st2{fill:#404041}</style><title>smiley_Happy_icon_Selected</title><g id="Page-1"><g id="smiley_Happy_icon_Selected"><g id="Group" transform="translate(6 6)"><path id="Stroke-49" class="st0" d="M-357.3 495c0 26.5-21.3 48-47.7 48s-47.7-21.5-47.7-48 21.3-48 47.7-48 47.7 21.5 47.7 48z"/><path id="Stroke-50" class="st1" d="M-425.4 508.8s6.8 13.7 20.4 13.7 20.4-13.7 20.4-13.7"/><path id="Path-Copy-5" class="st2" d="M-384.9 471.6c1.2 0 2.2 1 2.2 2.2v13.4c0 1.2-1 2.2-2.2 2.2-1.2 0-2.2-1-2.2-2.2v-13.4c0-1.2 1-2.2 2.2-2.2z"/><path id="Path-Copy-6" class="st2" d="M-426.4 471.6c1.2 0 2.2 1 2.2 2.2v13.4c0 1.2-1 2.2-2.2 2.2-1.2 0-2.2-1-2.2-2.2v-13.4c0-1.2.9-2.2 2.2-2.2z"/></g></g></g></svg>