<svg width="55" height="56" viewBox="0 0 55 56" xmlns="http://www.w3.org/2000/svg"><title>Group 14</title><g fill="none" fill-rule="evenodd"><path d="M53.705 27.983c0 14.7-11.818 26.616-26.396 26.616C12.731 54.6.913 42.683.913 27.983S12.731 1.366 27.309 1.366c14.578 0 26.396 11.917 26.396 26.617z" stroke="#4A4A4A" fill="#FFF" stroke-linecap="round" stroke-linejoin="round"/><path d="M38.622 35.61s-3.771 7.604-11.313 7.604c-7.542 0-11.313-7.604-11.313-7.604h22.626z" stroke="#4A4A4A" stroke-linecap="round" stroke-linejoin="round"/><path d="M39.233 15c.684 0 1.234.55 1.234 1.233v7.4a1.23 1.23 0 0 1-1.234 1.234A1.23 1.23 0 0 1 38 23.633v-7.4c0-.683.55-1.233 1.233-1.233zm-23 0c.684 0 1.234.55 1.234 1.233v7.4a1.23 1.23 0 0 1-1.234 1.234A1.23 1.23 0 0 1 15 23.633v-7.4c0-.683.55-1.233 1.233-1.233z" fill="#404041"/></g></svg>